<svg xmlns="http://www.w3.org/2000/svg" viewBox="0 0 24 24"><defs><style>.cls-1{fill:none;}</style></defs><g id="Camada_2" data-name="Camada 2"><g id="Camada_3" data-name="Camada 3"><g id="Layer_1" data-name="Layer 1"><path class="cls-1" d="M22.45,1.55a5.29,5.29,0,0,0-7.49,0h0L1.22,15.29a.64.64,0,0,0-.2.39L0,23.22a.67.67,0,0,0,.19.57A.69.69,0,0,0,.69,24H.78l4.54-.61A.69.69,0,1,0,5.23,22H5.14L1.5,22.5l.71-5.25,5.53,5.53a.7.7,0,0,0,.49.2.66.66,0,0,0,.48-.2L22.45,9.05a5.3,5.3,0,0,0,0-7.49ZM15.22,3.24l2.31,2.31L5,18.08l-2.31-2.3Zm-7,18.08L6,19.06,18.51,6.53l2.26,2.26ZM21.73,7.79,16.21,2.27a3.92,3.92,0,0,1,5.52,5.52Z"/></g></g></g></svg>