<svg xmlns="http://www.w3.org/2000/svg" viewBox="0 0 23.99 24"><defs><style>.cls-1{fill:#b2b2b2;}</style></defs><g id="Camada_2" data-name="Camada 2"><g id="Camada_3" data-name="Camada 3"><path class="cls-1" d="M6.4,19.05,4.65,20.8,2.31,23.13c-.57.57-1.17.64-1.62.2s-.4-1.06.16-1.63L4.5,18.06l.44-.44c-.15-.17-.28-.32-.42-.46l-3.9-3.9c-.85-.85-.83-1.4.09-2.17a8.53,8.53,0,0,1,6.89-2,.82.82,0,0,0,.77-.26C9.9,7.26,11.45,5.73,13,4.17a1.75,1.75,0,0,0,.42-.78A6.06,6.06,0,0,1,15,.36a1,1,0,0,1,1.46,0q3.6,3.59,7.17,7.18a1,1,0,0,1,0,1.47,6.18,6.18,0,0,1-3,1.62,1.82,1.82,0,0,0-.82.44c-1.54,1.5-3,3-4.57,4.54a.93.93,0,0,0-.32.89,8.66,8.66,0,0,1-2.33,7.15,1.06,1.06,0,0,1-1.67,0C10,22.63,9,21.66,8.06,20.7Zm-3.86-6.8,9.19,9.2a1.49,1.49,0,0,0,.15-.19,6.53,6.53,0,0,0,.95-5.12,1.27,1.27,0,0,1,.29-1.33C15,13,16.85,11.11,18.7,9.24a2,2,0,0,1,1.2-.61,14.3,14.3,0,0,0,1.54-.45L15.79,2.54c-.16.6-.27,1.12-.45,1.61a3.23,3.23,0,0,1-.56,1.11C13.07,7,11.29,8.72,9.59,10.5a1.94,1.94,0,0,1-2,.63A6.21,6.21,0,0,0,2.54,12.25Z"/></g></g></svg>