<svg xmlns="http://www.w3.org/2000/svg" viewBox="0 0 21.35 24"><defs><style>.cls-1{fill:none;}</style></defs><g id="Camada_2" data-name="Camada 2"><g id="Camada_3" data-name="Camada 3"><g id="Layer_1" data-name="Layer 1"><path class="cls-1" d="M20.74,3.45h-5V2.64A2.65,2.65,0,0,0,13.11,0H8.36A2.64,2.64,0,0,0,5.72,2.64v.81h-5A.67.67,0,1,0,.61,4.79H1.93V20.44A3.57,3.57,0,0,0,5.49,24H16a3.58,3.58,0,0,0,3.57-3.56V4.79h1.2a.67.67,0,0,0,0-1.34ZM7.05,2.64A1.31,1.31,0,0,1,8.36,1.33h4.75a1.31,1.31,0,0,1,1.3,1.31v.81H7.05ZM18.2,20.44A2.24,2.24,0,0,1,16,22.67H5.49a2.25,2.25,0,0,1-2.23-2.23V4.79h15V20.44Z"/><path class="cls-1" d="M10.73,20.28a.66.66,0,0,0,.67-.66h0V7.84a.67.67,0,0,0-1.33,0V19.61a.67.67,0,0,0,.67.67Z"/><path class="cls-1" d="M6.39,19.54a.65.65,0,0,0,.66-.66h0V8.57a.67.67,0,1,0-1.33-.11V18.88a.67.67,0,0,0,.67.67Z"/><path class="cls-1" d="M15.08,19.54a.65.65,0,0,0,.67-.65h0V8.57a.67.67,0,1,0-1.33-.11.21.21,0,0,0,0,.11V18.88a.66.66,0,0,0,.66.67h0Z"/></g></g></g></svg>